<?xml version="1.0" encoding="UTF-8"?>
<!DOCTYPE svg PUBLIC "-//W3C//DTD SVG 1.1//EN" "http://www.w3.org/Graphics/SVG/1.1/DTD/svg11.dtd">
<svg xmlns="http://www.w3.org/2000/svg" version="1.1" width="300px" height="92px" style="shape-rendering:geometricPrecision; text-rendering:geometricPrecision; image-rendering:optimizeQuality; fill-rule:evenodd; clip-rule:evenodd" xmlns:xlink="http://www.w3.org/1999/xlink">
<g><path style="opacity:1" fill="#31a6e0" d="M 3.5,85.5 C 3.33336,59.1646 3.50003,32.8312 4,6.5C 4.51328,5.47344 5.01328,4.47344 5.5,3.5C 101.999,2.3342 198.666,2.16753 295.5,3C 296.333,3.83333 297.167,4.66667 298,5.5C 298.667,31.8333 298.667,58.1667 298,84.5C 297.5,86.3333 296.333,87.5 294.5,88C 198.167,88.6667 101.833,88.6667 5.5,88C 4.61947,87.2917 3.9528,86.4584 3.5,85.5 Z"/></g>
<g><path style="opacity:0.631" fill="#48aee1" d="M 5.5,3.5 C 5.01328,4.47344 4.51328,5.47344 4,6.5C 3.50003,32.8312 3.33336,59.1646 3.5,85.5C 2.33647,59.0032 2.1698,32.3365 3,5.5C 3.41691,4.24402 4.25025,3.57735 5.5,3.5 Z"/></g>
<g><path style="opacity:1" fill="#f0f6f9" d="M 56.5,80.5 C 54.4855,79.0762 52.1522,78.4095 49.5,78.5C 30.3573,69.5485 22.8573,54.5485 27,33.5C 38.5551,8.81453 56.7217,2.31453 81.5,14C 98.3227,26.4726 102.489,42.3059 94,61.5C 85.4285,75.3697 72.9285,81.703 56.5,80.5 Z"/></g>
<g><path style="opacity:1" fill="#7cc6e9" d="M 65.5,14.5 C 60.7971,14.4372 56.1304,14.7705 51.5,15.5C 54.0169,14.027 56.8502,13.3603 60,13.5C 62.0326,13.5056 63.866,13.8389 65.5,14.5 Z"/></g>
<g><path style="opacity:1" fill="#32a6e0" d="M 65.5,14.5 C 87.9903,19.7911 96.4903,33.7911 91,56.5C 83.2281,72.6369 70.3948,79.1369 52.5,76C 34.6912,68.2184 27.5246,54.7184 31,35.5C 35.0995,25.899 41.9328,19.2323 51.5,15.5C 56.1304,14.7705 60.7971,14.4372 65.5,14.5 Z"/></g>
<g><path style="opacity:1" fill="#f9fcfd" d="M 68.5,33.5 C 70.5,33.5 72.5,33.5 74.5,33.5C 72.8558,40.9379 70.6891,48.2712 68,55.5C 67.2176,58.2165 65.8843,60.5498 64,62.5C 61.2889,60.1081 59.2889,57.1081 58,53.5C 54.9192,50.7069 51.4192,48.5403 47.5,47C 44.6736,44.4781 45.0069,42.4781 48.5,41C 55.4594,38.9624 62.1261,36.4624 68.5,33.5 Z"/></g>
<g><path style="opacity:1" fill="#fdfefe" d="M 107.5,34.5 C 114.833,34.5 122.167,34.5 129.5,34.5C 129.5,35.8333 129.5,37.1667 129.5,38.5C 126.5,38.5 123.5,38.5 120.5,38.5C 120.5,44.8333 120.5,51.1667 120.5,57.5C 118.833,57.5 117.167,57.5 115.5,57.5C 115.5,51.1667 115.5,44.8333 115.5,38.5C 112.833,38.5 110.167,38.5 107.5,38.5C 107.5,37.1667 107.5,35.8333 107.5,34.5 Z"/></g>
<g><path style="opacity:1" fill="#e2f2fa" d="M 150.5,33.5 C 152.5,33.5 154.5,33.5 156.5,33.5C 156.5,41.8333 156.5,50.1667 156.5,58.5C 154.5,58.5 152.5,58.5 150.5,58.5C 150.5,50.1667 150.5,41.8333 150.5,33.5 Z"/></g>
<g><path style="opacity:1" fill="#fefffe" d="M 151.5,34.5 C 152.833,34.5 154.167,34.5 155.5,34.5C 155.5,42.1667 155.5,49.8333 155.5,57.5C 154.167,57.5 152.833,57.5 151.5,57.5C 151.5,49.8333 151.5,42.1667 151.5,34.5 Z"/></g>
<g><path style="opacity:1" fill="#a1d6f1" d="M 107.5,34.5 C 107.5,35.8333 107.5,37.1667 107.5,38.5C 110.167,38.5 112.833,38.5 115.5,38.5C 115.5,44.8333 115.5,51.1667 115.5,57.5C 115.5,57.8333 115.5,58.1667 115.5,58.5C 114.51,52.3554 114.177,46.0221 114.5,39.5C 111.833,39.5 109.167,39.5 106.5,39.5C 106.216,37.5853 106.549,35.9187 107.5,34.5 Z"/></g>
<g><path style="opacity:1" fill="#c1e4f5" d="M 129.5,38.5 C 127.052,39.4731 124.385,39.8064 121.5,39.5C 121.5,45.8333 121.5,52.1667 121.5,58.5C 119.5,58.5 117.5,58.5 115.5,58.5C 115.5,58.1667 115.5,57.8333 115.5,57.5C 117.167,57.5 118.833,57.5 120.5,57.5C 120.5,51.1667 120.5,44.8333 120.5,38.5C 123.5,38.5 126.5,38.5 129.5,38.5 Z"/></g>
<g><path style="opacity:1" fill="#f2f9fc" d="M 145.5,50.5 C 141.167,50.5 136.833,50.5 132.5,50.5C 132.263,51.791 132.596,52.791 133.5,53.5C 137.352,54.6437 141.352,54.6437 145.5,53.5C 145.5,54.8333 145.5,56.1667 145.5,57.5C 140.871,58.481 136.204,58.6477 131.5,58C 125.311,52.6765 124.978,47.0099 130.5,41C 139.787,37.6855 144.787,40.8521 145.5,50.5 Z"/></g>
<g><path style="opacity:1" fill="#f3f9fd" d="M 166.5,39.5 C 174.925,38.6037 179.258,42.2704 179.5,50.5C 175.167,50.5 170.833,50.5 166.5,50.5C 166.33,51.8221 166.663,52.9887 167.5,54C 170.894,54.7517 174.227,54.5851 177.5,53.5C 178.83,55.3469 178.497,56.8469 176.5,58C 164.409,61.2242 159.242,56.7242 161,44.5C 162.73,42.5981 164.563,40.9314 166.5,39.5 Z"/></g>
<g><path style="opacity:1" fill="#f3f9fd" d="M 185.5,64.5 C 185.285,62.8212 185.952,61.8212 187.5,61.5C 189.857,61.6633 192.19,61.4966 194.5,61C 196.421,59.7592 196.754,58.2592 195.5,56.5C 187.809,59.8624 183.476,57.1957 182.5,48.5C 184.197,39.5763 188.697,37.5763 196,42.5C 197.754,40.75 199.921,40.0833 202.5,40.5C 202.884,47.5888 202.384,54.5888 201,61.5C 199.681,63.4875 197.848,64.6541 195.5,65C 191.973,65.8075 188.64,65.6408 185.5,64.5 Z"/></g>
<g><path style="opacity:1" fill="#fafdfe" d="M 217.5,40.5 C 218.833,40.5 220.167,40.5 221.5,40.5C 221.768,42.099 221.434,43.4324 220.5,44.5C 217.687,44.0246 215.687,45.0246 214.5,47.5C 213.521,50.6248 213.187,53.9581 213.5,57.5C 211.833,57.5 210.167,57.5 208.5,57.5C 208.5,51.8333 208.5,46.1667 208.5,40.5C 211.646,40.8821 214.646,40.8821 217.5,40.5 Z"/></g>
<g><path style="opacity:1" fill="#82c8eb" d="M 217.5,40.5 C 218.919,39.5489 220.585,39.2155 222.5,39.5C 222.799,41.604 222.466,43.604 221.5,45.5C 220.893,45.3764 220.56,45.0431 220.5,44.5C 221.434,43.4324 221.768,42.099 221.5,40.5C 220.167,40.5 218.833,40.5 217.5,40.5 Z"/></g>
<g><path style="opacity:1" fill="#f3f9fd" d="M 227.5,47.5 C 230.247,47.8134 232.914,47.48 235.5,46.5C 235.376,45.8933 235.043,45.56 234.5,45.5C 233.508,43.9735 232.008,43.3068 230,43.5C 228.439,43.6032 226.939,43.9366 225.5,44.5C 224.167,43.1667 224.167,41.8333 225.5,40.5C 230.982,38.6192 235.815,39.6192 240,43.5C 240.499,48.4889 240.666,53.4889 240.5,58.5C 238.179,58.7711 236.179,58.1045 234.5,56.5C 231.792,58.4357 228.792,58.9357 225.5,58C 221.105,53.4766 221.772,49.9766 227.5,47.5 Z"/></g>
<g><path style="opacity:1" fill="#f1f9fc" d="M 264.5,46.5 C 263.518,49.9619 263.185,53.6286 263.5,57.5C 261.833,57.5 260.167,57.5 258.5,57.5C 258.5,53.1667 258.5,48.8333 258.5,44.5C 256.234,44.1412 254.401,44.8078 253,46.5C 252.501,50.4862 252.334,54.4862 252.5,58.5C 250.5,58.5 248.5,58.5 246.5,58.5C 246.5,52.5 246.5,46.5 246.5,40.5C 249.079,40.0833 251.246,40.75 253,42.5C 256.46,38.5537 259.96,38.5537 263.5,42.5C 267.294,38.5537 271.128,38.5537 275,42.5C 275.499,47.8229 275.666,53.1563 275.5,58.5C 273.5,58.5 271.5,58.5 269.5,58.5C 269.5,53.8333 269.5,49.1667 269.5,44.5C 267.302,44.1201 265.635,44.7868 264.5,46.5 Z"/></g>
<g><path style="opacity:1" fill="#47aee3" d="M 134.5,43.5 C 137.95,42.7564 139.616,44.0897 139.5,47.5C 137.076,47.8076 134.743,47.4742 132.5,46.5C 133.193,45.4822 133.859,44.4822 134.5,43.5 Z"/></g>
<g><path style="opacity:1" fill="#47aee3" d="M 168.5,43.5 C 171.95,42.7564 173.616,44.0897 173.5,47.5C 171.076,47.8076 168.743,47.4742 166.5,46.5C 167.193,45.4822 167.859,44.4822 168.5,43.5 Z"/></g>
<g><path style="opacity:1" fill="#48ade3" d="M 189.5,44.5 C 196.815,44.2828 198.481,47.4495 194.5,54C 190.466,54.976 188.466,53.3094 188.5,49C 188.773,47.4672 189.106,45.9672 189.5,44.5 Z"/></g>
<g><path style="opacity:1" fill="#96d1ef" d="M 234.5,45.5 C 235.043,45.56 235.376,45.8933 235.5,46.5C 232.914,47.48 230.247,47.8134 227.5,47.5C 229.833,46.8333 232.167,46.1667 234.5,45.5 Z"/></g>
<g><path style="opacity:1" fill="#cfeaf7" d="M 264.5,46.5 C 264.5,50.5 264.5,54.5 264.5,58.5C 262.265,58.7947 260.265,58.4614 258.5,57.5C 260.167,57.5 261.833,57.5 263.5,57.5C 263.185,53.6286 263.518,49.9619 264.5,46.5 Z"/></g>
<g><path style="opacity:1" fill="#c7e7f6" d="M 214.5,47.5 C 214.5,51.1667 214.5,54.8333 214.5,58.5C 212.265,58.7947 210.265,58.4614 208.5,57.5C 210.167,57.5 211.833,57.5 213.5,57.5C 213.187,53.9581 213.521,50.6248 214.5,47.5 Z"/></g>
<g><path style="opacity:1" fill="#6fc1ea" d="M 145.5,50.5 C 141.232,50.8693 137.232,51.8693 133.5,53.5C 132.596,52.791 132.263,51.791 132.5,50.5C 136.833,50.5 141.167,50.5 145.5,50.5 Z"/></g>
<g><path style="opacity:1" fill="#4eb0e3" d="M 229.5,50.5 C 231.167,50.5 232.833,50.5 234.5,50.5C 234.707,53.1268 233.54,54.7935 231,55.5C 228.389,54.5001 227.889,52.8334 229.5,50.5 Z"/></g>
<g><path style="opacity:1" fill="#a2d7f1" d="M 187.5,61.5 C 185.952,61.8212 185.285,62.8212 185.5,64.5C 184.566,63.4324 184.232,62.099 184.5,60.5C 185.791,60.2627 186.791,60.596 187.5,61.5 Z"/></g>
<g><path style="opacity:1" fill="#b2d0dd" d="M 49.5,78.5 C 52.1522,78.4095 54.4855,79.0762 56.5,80.5C 53.8478,80.5905 51.5145,79.9238 49.5,78.5 Z"/></g>
<g><path style="opacity:0.015" fill="#d6d5d5" d="M 278.5,90.5 C 283.316,89.3503 288.316,89.1837 293.5,90C 288.511,90.4993 283.511,90.6659 278.5,90.5 Z"/></g>
</svg>
