<?xml version="1.0" encoding="UTF-8"?>
<!DOCTYPE svg PUBLIC "-//W3C//DTD SVG 1.1//EN" "http://www.w3.org/Graphics/SVG/1.1/DTD/svg11.dtd">
<svg xmlns="http://www.w3.org/2000/svg" version="1.1" width="707px" height="217px" style="shape-rendering:geometricPrecision; text-rendering:geometricPrecision; image-rendering:optimizeQuality; fill-rule:evenodd; clip-rule:evenodd" xmlns:xlink="http://www.w3.org/1999/xlink">
<g><path style="opacity:0.998" fill="#8a50a1" d="M 704.5,17.5 C 704.5,77.8333 704.5,138.167 704.5,198.5C 703.596,199.209 703.263,200.209 703.5,201.5C 702.167,202.167 702.167,202.833 703.5,203.5C 703.34,205.153 702.674,206.486 701.5,207.5C 701.167,204.833 700.833,204.833 700.5,207.5C 699.833,207.5 699.5,207.833 699.5,208.5C 698.167,208.833 698.167,209.167 699.5,209.5C 697.181,212.294 694.181,214.128 690.5,215C 465.833,215.667 241.167,215.667 16.5,215C 13.2154,214.241 10.2154,212.908 7.5,211C 6.16667,210.333 6.16667,209.667 7.5,209C 6.29857,208.097 5.46524,206.931 5,205.5C 4.66667,206.167 4.33333,206.833 4,207.5C 3.20858,206.255 2.70858,204.922 2.5,203.5C 3.83333,202.833 3.83333,202.167 2.5,201.5C 2.73731,200.209 2.40397,199.209 1.5,198.5C 1.33334,138.166 1.50001,77.8324 2,17.5C 3.37352,15.1765 3.70685,12.8431 3,10.5C 3.66667,9.16667 4.33333,9.16667 5,10.5C 7.91063,8.33513 9.74396,5.83513 10.5,3C 12.5,2.33333 14.5,1.66667 16.5,1C 96.5,0.333333 176.5,0.333333 256.5,1C 176.833,1.33333 97.1667,1.66667 17.5,2C 241.5,2.66667 465.5,2.66667 689.5,2C 545.5,1.66667 401.5,1.33333 257.5,1C 401.833,0.333333 546.167,0.333333 690.5,1C 693.377,1.95615 696.044,3.28948 698.5,5C 698.512,6.83976 699.346,8.67309 701,10.5C 701.333,9.83333 701.667,9.16667 702,8.5C 702.078,11.6961 702.912,14.6961 704.5,17.5 Z"/></g>
<g><path style="opacity:0.027" fill="#844b99" d="M 705.5,17.5 C 705.167,17.5 704.833,17.5 704.5,17.5C 704.833,13.5 705.167,13.5 705.5,17.5 Z"/></g>
<g><path style="opacity:0.031" fill="#8a4fa1" d="M -0.5,17.5 C 0.499068,77.6644 0.832401,137.998 0.5,198.5C 0.166667,198.5 -0.166667,198.5 -0.5,198.5C -0.5,138.167 -0.5,77.8333 -0.5,17.5 Z"/></g>
<g><path style="opacity:0.032" fill="#8a50a1" d="M 705.5,17.5 C 705.833,17.5 706.167,17.5 706.5,17.5C 706.5,73.8333 706.5,130.167 706.5,186.5C 705.501,130.336 705.168,74.0025 705.5,17.5 Z"/></g>
<g><path style="opacity:1" fill="#9c73ad" d="M 124.5,23.5 C 128.151,22.8345 131.985,22.5012 136,22.5C 142.725,22.3997 149.225,23.0664 155.5,24.5C 145.183,23.7735 134.85,23.4402 124.5,23.5 Z"/></g>
<g><path style="opacity:1" fill="#f9f8fa" d="M 124.5,23.5 C 134.85,23.4402 145.183,23.7735 155.5,24.5C 191.579,26.0829 211.079,44.7496 214,80.5C 214.99,96.633 213.99,112.633 211,128.5C 205.807,145.693 194.64,156.86 177.5,162C 159.507,166.846 141.174,168.846 122.5,168C 117.167,174 111.833,180 106.5,186C 101.382,188.691 98.215,187.191 97,181.5C 96.6667,175.167 96.3333,168.833 96,162.5C 76.7468,156.338 65.0802,143.338 61,123.5C 58.1473,106.886 57.8139,90.2194 60,73.5C 62.3824,49.4536 75.2158,34.2869 98.5,28C 107.176,25.7216 115.842,24.2216 124.5,23.5 Z"/></g>
<g><path style="opacity:1" fill="#bca7cd" d="M 120.5,35.5 C 125.489,34.834 130.656,34.5006 136,34.5C 143.728,34.316 151.228,34.9826 158.5,36.5C 145.85,35.7075 133.183,35.3742 120.5,35.5 Z"/></g>
<g><path style="opacity:1" fill="#7b519c" d="M 120.5,35.5 C 133.183,35.3742 145.85,35.7075 158.5,36.5C 168.314,38.1603 177.647,41.3269 186.5,46C 195.789,54.411 200.955,64.911 202,77.5C 202.769,90.5288 202.436,103.529 201,116.5C 199.535,130.622 192.701,141.122 180.5,148C 162.758,154.505 144.425,157.339 125.5,156.5C 118.479,164.353 111.646,172.353 105,180.5C 103.989,181.337 102.822,181.67 101.5,181.5C 101.5,171.167 101.5,160.833 101.5,150.5C 100.167,150.5 98.8333,150.5 97.5,150.5C 83.3661,144.948 74.8661,134.615 72,119.5C 69.8064,102.449 70.1397,85.4488 73,68.5C 76.5802,55.5943 84.4135,46.4276 96.5,41C 104.294,38.2181 112.294,36.3847 120.5,35.5 Z"/></g>
<g><path style="opacity:1" fill="#f1ecf4" d="M 134.5,52.5 C 163.304,54.4669 177.804,69.8003 178,98.5C 176.667,99.8333 175.333,99.8333 174,98.5C 173.596,71.9288 160.096,57.9288 133.5,56.5C 133.433,55.0413 133.766,53.7079 134.5,52.5 Z"/></g>
<g><path style="opacity:1" fill="#fbfafc" d="M 104.5,57.5 C 106.527,57.3379 108.527,57.5045 110.5,58C 115.274,63.0513 119.44,68.5513 123,74.5C 123.667,76.5 123.667,78.5 123,80.5C 119.903,83.0886 117.403,86.0886 115.5,89.5C 120.034,104.877 130.034,114.043 145.5,117C 147.5,114.667 149.5,112.333 151.5,110C 160.804,111.073 168.638,115.239 175,122.5C 174.855,130.007 171.355,135.507 164.5,139C 161.5,139.667 158.5,139.667 155.5,139C 125.487,126.988 104.987,105.821 94,75.5C 93.3333,72.8333 93.3333,70.1667 94,67.5C 96.7379,63.2595 100.238,59.9262 104.5,57.5 Z"/></g>
<g><path style="opacity:1" fill="#cdb7d6" d="M 282.5,61.5 C 274.981,61.175 267.648,61.5084 260.5,62.5C 259.957,62.44 259.624,62.1067 259.5,61.5C 267.323,60.1801 274.99,60.1801 282.5,61.5 Z"/></g>
<g><path style="opacity:1" fill="#ceb8d7" d="M 333.5,61.5 C 340.982,60.508 348.648,60.1746 356.5,60.5C 356.768,62.099 356.434,63.4324 355.5,64.5C 355.5,63.5 355.5,62.5 355.5,61.5C 348.167,61.5 340.833,61.5 333.5,61.5 Z"/></g>
<g><path style="opacity:1" fill="#cfb8d7" d="M 562.5,78.5 C 562.167,78.5 561.833,78.5 561.5,78.5C 561.5,72.8333 561.5,67.1667 561.5,61.5C 539.833,61.5 518.167,61.5 496.5,61.5C 496.5,92.1667 496.5,122.833 496.5,153.5C 518.167,153.5 539.833,153.5 561.5,153.5C 561.833,153.5 562.167,153.5 562.5,153.5C 540.34,154.497 518.006,154.831 495.5,154.5C 495.5,123.167 495.5,91.8333 495.5,60.5C 517.833,60.5 540.167,60.5 562.5,60.5C 562.5,66.5 562.5,72.5 562.5,78.5 Z"/></g>
<g><path style="opacity:1" fill="#fcfbfd" d="M 282.5,61.5 C 291.513,84.581 300.179,107.914 308.5,131.5C 316.452,107.974 324.785,84.6404 333.5,61.5C 340.833,61.5 348.167,61.5 355.5,61.5C 355.5,62.5 355.5,63.5 355.5,64.5C 343.201,94.0527 331.868,124.053 321.5,154.5C 312.833,154.5 304.167,154.5 295.5,154.5C 283.454,124.035 271.787,93.368 260.5,62.5C 267.648,61.5084 274.981,61.175 282.5,61.5 Z"/></g>
<g><path style="opacity:1" fill="#fefefe" d="M 384.5,61.5 C 384.5,92.1667 384.5,122.833 384.5,153.5C 378.167,153.5 371.833,153.5 365.5,153.5C 365.5,122.833 365.5,92.1667 365.5,61.5C 371.833,61.5 378.167,61.5 384.5,61.5 Z"/></g>
<g><path style="opacity:1" fill="#fdfcfd" d="M 403.5,60.5 C 422.17,60.3334 440.836,60.5001 459.5,61C 477.438,66.7092 483.271,78.5426 477,96.5C 474.433,100.7 470.933,103.867 466.5,106C 481.958,114.433 485.791,126.599 478,142.5C 473.802,148.691 467.968,152.525 460.5,154C 441.503,154.5 422.503,154.667 403.5,154.5C 403.5,123.167 403.5,91.8333 403.5,60.5 Z"/></g>
<g><path style="opacity:1" fill="#fefefe" d="M 561.5,78.5 C 546.167,78.5 530.833,78.5 515.5,78.5C 515.5,85.1667 515.5,91.8333 515.5,98.5C 530.5,98.5 545.5,98.5 560.5,98.5C 560.5,104.167 560.5,109.833 560.5,115.5C 545.5,115.5 530.5,115.5 515.5,115.5C 515.175,122.687 515.509,129.687 516.5,136.5C 531.324,137.496 546.324,137.829 561.5,137.5C 561.5,142.833 561.5,148.167 561.5,153.5C 539.833,153.5 518.167,153.5 496.5,153.5C 496.5,122.833 496.5,92.1667 496.5,61.5C 518.167,61.5 539.833,61.5 561.5,61.5C 561.5,67.1667 561.5,72.8333 561.5,78.5 Z"/></g>
<g><path style="opacity:1" fill="#fdfcfd" d="M 611.5,121.5 C 607.03,120.514 602.363,120.181 597.5,120.5C 597.5,131.833 597.5,143.167 597.5,154.5C 590.833,154.5 584.167,154.5 577.5,154.5C 577.5,123.167 577.5,91.8333 577.5,60.5C 594.503,60.3334 611.503,60.5001 628.5,61C 644.337,64.6519 652.337,74.6519 652.5,91C 652.82,105.343 646.154,114.677 632.5,119C 639.545,130.254 646.212,141.754 652.5,153.5C 644.862,154.497 637.196,154.831 629.5,154.5C 623.77,143.375 617.77,132.375 611.5,121.5 Z"/></g>
<g><path style="opacity:1" fill="#e0d0e6" d="M 384.5,61.5 C 384.833,61.5 385.167,61.5 385.5,61.5C 385.5,92.5 385.5,123.5 385.5,154.5C 378.833,154.5 372.167,154.5 365.5,154.5C 365.5,154.167 365.5,153.833 365.5,153.5C 371.833,153.5 378.167,153.5 384.5,153.5C 384.5,122.833 384.5,92.1667 384.5,61.5 Z"/></g>
<g><path style="opacity:1" fill="#c7aed1" d="M 385.5,61.5 C 385.167,61.5 384.833,61.5 384.5,61.5C 378.167,61.5 371.833,61.5 365.5,61.5C 365.5,92.1667 365.5,122.833 365.5,153.5C 365.5,153.833 365.5,154.167 365.5,154.5C 364.502,123.338 364.168,92.0044 364.5,60.5C 371.687,60.1755 378.687,60.5088 385.5,61.5 Z"/></g>
<g><path style="opacity:1" fill="#f1edf5" d="M 137.5,63.5 C 157.176,64.6724 167.01,75.0057 167,94.5C 166.282,95.4506 165.449,95.6172 164.5,95C 163.373,78.04 154.373,68.8733 137.5,67.5C 137.5,66.1667 137.5,64.8333 137.5,63.5 Z"/></g>
<g><path style="opacity:1" fill="#f0ecf4" d="M 140.5,74.5 C 151.863,74.5113 157.196,80.178 156.5,91.5C 155.178,91.67 154.011,91.3366 153,90.5C 152.809,82.731 148.809,78.731 141,78.5C 140.51,77.2068 140.343,75.8734 140.5,74.5 Z"/></g>
<g><path style="opacity:1" fill="#8b51a2" d="M 450.5,78.5 C 458.526,81.1935 460.693,86.5269 457,94.5C 455.512,96.16 453.679,97.16 451.5,97.5C 442.5,97.5 433.5,97.5 424.5,97.5C 424.5,91.1667 424.5,84.8333 424.5,78.5C 433.167,78.5 441.833,78.5 450.5,78.5 Z"/></g>
<g><path style="opacity:1" fill="#b08bbf" d="M 622.5,79.5 C 614.5,79.5 606.5,79.5 598.5,79.5C 598.5,87.1667 598.5,94.8333 598.5,102.5C 606.5,102.5 614.5,102.5 622.5,102.5C 614.35,103.493 606.017,103.826 597.5,103.5C 597.5,95.1667 597.5,86.8333 597.5,78.5C 606.017,78.1739 614.35,78.5073 622.5,79.5 Z"/></g>
<g><path style="opacity:1" fill="#8b50a2" d="M 622.5,79.5 C 632.178,82.8702 634.678,89.2035 630,98.5C 627.843,100.495 625.343,101.828 622.5,102.5C 614.5,102.5 606.5,102.5 598.5,102.5C 598.5,94.8333 598.5,87.1667 598.5,79.5C 606.5,79.5 614.5,79.5 622.5,79.5 Z"/></g>
<g><path style="opacity:1" fill="#c0a4cb" d="M 450.5,78.5 C 441.833,78.5 433.167,78.5 424.5,78.5C 424.5,84.8333 424.5,91.1667 424.5,97.5C 433.5,97.5 442.5,97.5 451.5,97.5C 442.348,98.4936 433.015,98.8269 423.5,98.5C 423.5,91.5 423.5,84.5 423.5,77.5C 432.682,77.1734 441.682,77.5067 450.5,78.5 Z"/></g>
<g><path style="opacity:1" fill="#bc9fc9" d="M 561.5,78.5 C 561.833,78.5 562.167,78.5 562.5,78.5C 547.342,79.4962 532.009,79.8295 516.5,79.5C 516.5,85.5 516.5,91.5 516.5,97.5C 531.5,97.5 546.5,97.5 561.5,97.5C 561.5,103.833 561.5,110.167 561.5,116.5C 546.5,116.5 531.5,116.5 516.5,116.5C 516.5,122.833 516.5,129.167 516.5,135.5C 532.009,135.17 547.342,135.504 562.5,136.5C 547.167,136.5 531.833,136.5 516.5,136.5C 515.509,129.687 515.175,122.687 515.5,115.5C 530.5,115.5 545.5,115.5 560.5,115.5C 560.5,109.833 560.5,104.167 560.5,98.5C 545.5,98.5 530.5,98.5 515.5,98.5C 515.5,91.8333 515.5,85.1667 515.5,78.5C 530.833,78.5 546.167,78.5 561.5,78.5 Z"/></g>
<g><path style="opacity:1" fill="#8b50a2" d="M 424.5,115.5 C 434.938,115.049 445.271,115.549 455.5,117C 460.596,121.248 461.763,126.415 459,132.5C 457.729,133.883 456.229,134.883 454.5,135.5C 444.5,135.5 434.5,135.5 424.5,135.5C 424.5,128.833 424.5,122.167 424.5,115.5 Z"/></g>
<g><path style="opacity:1" fill="#ba98c7" d="M 611.5,121.5 C 607.167,121.5 602.833,121.5 598.5,121.5C 598.828,132.679 598.495,143.679 597.5,154.5C 597.5,143.167 597.5,131.833 597.5,120.5C 602.363,120.181 607.03,120.514 611.5,121.5 Z"/></g>
<g><path style="opacity:1" fill="#9e70b1" d="M 424.5,115.5 C 424.5,122.167 424.5,128.833 424.5,135.5C 434.5,135.5 444.5,135.5 454.5,135.5C 444.347,136.494 434.014,136.828 423.5,136.5C 423.175,129.313 423.509,122.313 424.5,115.5 Z"/></g>
<g><path style="opacity:1" fill="#e8e1ec" d="M 516.5,136.5 C 531.833,136.5 547.167,136.5 562.5,136.5C 562.5,142.167 562.5,147.833 562.5,153.5C 562.167,153.5 561.833,153.5 561.5,153.5C 561.5,148.167 561.5,142.833 561.5,137.5C 546.324,137.829 531.324,137.496 516.5,136.5 Z"/></g>
<g><path style="opacity:1" fill="#a082b7" d="M 97.5,150.5 C 98.8333,150.5 100.167,150.5 101.5,150.5C 101.5,160.833 101.5,171.167 101.5,181.5C 100.506,171.681 100.173,161.681 100.5,151.5C 99.209,151.737 98.209,151.404 97.5,150.5 Z"/></g>
<g><path style="opacity:0.031" fill="#884e9e" d="M 706.5,187.5 C 706.5,191.167 706.5,194.833 706.5,198.5C 706.167,198.5 705.833,198.5 705.5,198.5C 705.185,194.629 705.518,190.962 706.5,187.5 Z"/></g>
<g><path style="opacity:0.027" fill="#844b99" d="M 0.5,198.5 C 0.833333,198.5 1.16667,198.5 1.5,198.5C 1.5,199.5 1.5,200.5 1.5,201.5C 0.596028,200.791 0.262695,199.791 0.5,198.5 Z"/></g>
<g><path style="opacity:0.027" fill="#844b99" d="M 704.5,198.5 C 704.833,198.5 705.167,198.5 705.5,198.5C 705.737,199.791 705.404,200.791 704.5,201.5C 704.5,200.5 704.5,199.5 704.5,198.5 Z"/></g>
<g><path style="opacity:0.027" fill="#894f9f" d="M 1.5,201.5 C 1.83333,201.5 2.16667,201.5 2.5,201.5C 2.5,202.167 2.5,202.833 2.5,203.5C 1.66175,203.158 1.32842,202.492 1.5,201.5 Z"/></g>
<g><path style="opacity:0.027" fill="#894f9f" d="M 703.5,201.5 C 703.833,201.5 704.167,201.5 704.5,201.5C 704.672,202.492 704.338,203.158 703.5,203.5C 703.5,202.833 703.5,202.167 703.5,201.5 Z"/></g>
<g><path style="opacity:0.012" fill="#7d4893" d="M 700.5,207.5 C 700.833,207.5 701.167,207.5 701.5,207.5C 701.315,208.17 700.981,208.17 700.5,207.5 Z"/></g>
<g><path style="opacity:0.027" fill="#9657b0" d="M 699.5,208.5 C 699.833,208.5 700.167,208.5 700.5,208.5C 700.315,209.17 699.981,209.17 699.5,208.5 Z"/></g>
</svg>
