<?xml version="1.0" encoding="UTF-8"?>
<!DOCTYPE svg PUBLIC "-//W3C//DTD SVG 1.1//EN" "http://www.w3.org/Graphics/SVG/1.1/DTD/svg11.dtd">
<svg xmlns="http://www.w3.org/2000/svg" version="1.1" width="707px" height="217px" style="shape-rendering:geometricPrecision; text-rendering:geometricPrecision; image-rendering:optimizeQuality; fill-rule:evenodd; clip-rule:evenodd" xmlns:xlink="http://www.w3.org/1999/xlink">
<g><path style="opacity:0.998" fill="#8a50a1" d="M 704.5,17.5 C 704.5,77.8333 704.5,138.167 704.5,198.5C 703.596,199.209 703.263,200.209 703.5,201.5C 702.167,202.167 702.167,202.833 703.5,203.5C 703.34,205.153 702.674,206.486 701.5,207.5C 701.167,204.833 700.833,204.833 700.5,207.5C 699.833,207.5 699.5,207.833 699.5,208.5C 698.167,208.833 698.167,209.167 699.5,209.5C 697.181,212.294 694.181,214.128 690.5,215C 465.833,215.667 241.167,215.667 16.5,215C 13.2154,214.241 10.2154,212.908 7.5,211C 6.16667,210.333 6.16667,209.667 7.5,209C 6.29857,208.097 5.46524,206.931 5,205.5C 4.66667,206.167 4.33333,206.833 4,207.5C 3.20858,206.255 2.70858,204.922 2.5,203.5C 3.83333,202.833 3.83333,202.167 2.5,201.5C 2.73731,200.209 2.40397,199.209 1.5,198.5C 1.33334,138.166 1.50001,77.8324 2,17.5C 3.37352,15.1765 3.70685,12.8431 3,10.5C 3.66667,9.16667 4.33333,9.16667 5,10.5C 7.91063,8.33513 9.74396,5.83513 10.5,3C 12.5,2.33333 14.5,1.66667 16.5,1C 96.5,0.333333 176.5,0.333333 256.5,1C 176.833,1.33333 97.1667,1.66667 17.5,2C 241.5,2.66667 465.5,2.66667 689.5,2C 545.5,1.66667 401.5,1.33333 257.5,1C 401.833,0.333333 546.167,0.333333 690.5,1C 693.377,1.95615 696.044,3.28948 698.5,5C 698.512,6.83976 699.346,8.67309 701,10.5C 701.333,9.83333 701.667,9.16667 702,8.5C 702.078,11.6961 702.912,14.6961 704.5,17.5 Z"/></g>
<g><path style="opacity:0.027" fill="#844b99" d="M 705.5,17.5 C 705.167,17.5 704.833,17.5 704.5,17.5C 704.833,13.5 705.167,13.5 705.5,17.5 Z"/></g>
<g><path style="opacity:0.031" fill="#8a4fa1" d="M -0.5,17.5 C 0.499068,77.6644 0.832401,137.998 0.5,198.5C 0.166667,198.5 -0.166667,198.5 -0.5,198.5C -0.5,138.167 -0.5,77.8333 -0.5,17.5 Z"/></g>
<g><path style="opacity:0.032" fill="#8a50a1" d="M 705.5,17.5 C 705.833,17.5 706.167,17.5 706.5,17.5C 706.5,73.8333 706.5,130.167 706.5,186.5C 705.501,130.336 705.168,74.0025 705.5,17.5 Z"/></g>
<g><path style="opacity:1" fill="#9c73ad" d="M 124.5,23.5 C 128.151,22.8345 131.985,22.5012 136,22.5C 142.725,22.3997 149.225,23.0664 155.5,24.5C 145.183,23.7735 134.85,23.4402 124.5,23.5 Z"/></g>
<g><path style="opacity:1" fill="#faf8fa" d="M 124.5,23.5 C 134.85,23.4402 145.183,23.7735 155.5,24.5C 170.028,25.6276 183.361,30.1276 195.5,38C 205.842,47.1842 211.509,58.6842 212.5,72.5C 213.099,83.1564 213.433,93.8231 213.5,104.5C 214.142,117.629 211.475,129.963 205.5,141.5C 200.642,148.855 194.309,154.688 186.5,159C 165.808,166.45 144.475,169.45 122.5,168C 121.944,168.383 121.611,168.883 121.5,169.5C 116.4,174.832 111.4,180.332 106.5,186C 101.382,188.691 98.215,187.191 97,181.5C 96.6667,175.167 96.3333,168.833 96,162.5C 74.8124,154.967 62.8124,139.967 60,117.5C 57.2006,96.8771 58.5339,76.5438 64,56.5C 72.5151,38.6769 86.6818,28.5102 106.5,26C 112.647,25.1625 118.647,24.3291 124.5,23.5 Z"/></g>
<g><path style="opacity:1" fill="#bca7cd" d="M 120.5,35.5 C 125.489,34.834 130.656,34.5006 136,34.5C 143.728,34.316 151.228,34.9826 158.5,36.5C 145.85,35.7075 133.183,35.3742 120.5,35.5 Z"/></g>
<g><path style="opacity:1" fill="#7b519c" d="M 120.5,35.5 C 133.183,35.3742 145.85,35.7075 158.5,36.5C 168.314,38.1603 177.647,41.3269 186.5,46C 195.789,54.411 200.955,64.911 202,77.5C 202.769,90.5288 202.436,103.529 201,116.5C 199.535,130.622 192.701,141.122 180.5,148C 162.758,154.505 144.425,157.339 125.5,156.5C 118.479,164.353 111.646,172.353 105,180.5C 103.989,181.337 102.822,181.67 101.5,181.5C 101.5,171.167 101.5,160.833 101.5,150.5C 100.167,150.5 98.8333,150.5 97.5,150.5C 83.3661,144.948 74.8661,134.615 72,119.5C 69.8064,102.449 70.1397,85.4488 73,68.5C 76.5802,55.5943 84.4135,46.4276 96.5,41C 104.294,38.2181 112.294,36.3847 120.5,35.5 Z"/></g>
<g><path style="opacity:1" fill="#f1ecf4" d="M 134.5,52.5 C 163.304,54.4669 177.804,69.8003 178,98.5C 176.667,99.8333 175.333,99.8333 174,98.5C 173.596,71.9288 160.096,57.9288 133.5,56.5C 133.433,55.0413 133.766,53.7079 134.5,52.5 Z"/></g>
<g><path style="opacity:1" fill="#fbfafc" d="M 104.5,57.5 C 106.527,57.3379 108.527,57.5045 110.5,58C 115.274,63.0513 119.44,68.5513 123,74.5C 123.667,76.5 123.667,78.5 123,80.5C 119.903,83.0886 117.403,86.0886 115.5,89.5C 120.034,104.877 130.034,114.043 145.5,117C 147.5,114.667 149.5,112.333 151.5,110C 160.804,111.073 168.638,115.239 175,122.5C 174.855,130.007 171.355,135.507 164.5,139C 161.5,139.667 158.5,139.667 155.5,139C 125.487,126.988 104.987,105.821 94,75.5C 93.3333,72.8333 93.3333,70.1667 94,67.5C 96.7379,63.2595 100.238,59.9262 104.5,57.5 Z"/></g>
<g><path style="opacity:1" fill="#f9f7fa" d="M 397.5,58.5 C 404.648,56.7054 409.815,59.0388 413,65.5C 413.459,76.3715 408.292,80.8715 397.5,79C 389.507,71.9958 389.507,65.1625 397.5,58.5 Z"/></g>
<g><path style="opacity:1" fill="#ceb7d6" d="M 362.5,61.5 C 369.982,60.508 377.648,60.1746 385.5,60.5C 385.737,61.791 385.404,62.791 384.5,63.5C 377.576,61.5367 370.243,60.8701 362.5,61.5 Z"/></g>
<g><path style="opacity:1" fill="#fcfbfd" d="M 362.5,61.5 C 370.243,60.8701 377.576,61.5367 384.5,63.5C 372.903,93.4638 361.236,123.464 349.5,153.5C 340.749,153.803 332.082,153.47 323.5,152.5C 311.451,122.027 299.785,91.3604 288.5,60.5C 296.42,60.185 304.253,60.5183 312,61.5C 320.35,84.5554 328.684,107.555 337,130.5C 345.234,107.286 353.734,84.2858 362.5,61.5 Z"/></g>
<g><path style="opacity:1" fill="#fdfcfd" d="M 446.5,61.5 C 446.333,72.505 446.5,83.505 447,94.5C 447.717,93.9558 448.217,93.2891 448.5,92.5C 463.776,80.9105 477.943,82.2438 491,96.5C 499.66,112.451 499.66,128.451 491,144.5C 477.927,158.734 463.761,160.067 448.5,148.5C 448.217,147.711 447.717,147.044 447,146.5C 446.503,148.81 446.337,151.143 446.5,153.5C 440.833,153.5 435.167,153.5 429.5,153.5C 429.5,122.833 429.5,92.1667 429.5,61.5C 435.167,61.5 440.833,61.5 446.5,61.5 Z"/></g>
<g><path style="opacity:1" fill="#dacbe0" d="M 446.5,60.5 C 446.5,60.8333 446.5,61.1667 446.5,61.5C 440.833,61.5 435.167,61.5 429.5,61.5C 429.5,92.1667 429.5,122.833 429.5,153.5C 435.167,153.5 440.833,153.5 446.5,153.5C 446.5,153.833 446.5,154.167 446.5,154.5C 440.5,154.5 434.5,154.5 428.5,154.5C 428.5,123.167 428.5,91.8333 428.5,60.5C 434.5,60.5 440.5,60.5 446.5,60.5 Z"/></g>
<g><path style="opacity:1" fill="#ad89bc" d="M 446.5,60.5 C 447.167,71.1667 447.833,81.8333 448.5,92.5C 448.217,93.2891 447.717,93.9558 447,94.5C 446.5,83.505 446.333,72.505 446.5,61.5C 446.5,61.1667 446.5,60.8333 446.5,60.5 Z"/></g>
<g><path style="opacity:1" fill="#f1edf5" d="M 137.5,63.5 C 157.176,64.6724 167.01,75.0057 167,94.5C 166.282,95.4506 165.449,95.6172 164.5,95C 163.373,78.04 154.373,68.8733 137.5,67.5C 137.5,66.1667 137.5,64.8333 137.5,63.5 Z"/></g>
<g><path style="opacity:1" fill="#f0ecf4" d="M 140.5,74.5 C 151.863,74.5113 157.196,80.178 156.5,91.5C 155.178,91.67 154.011,91.3366 153,90.5C 152.809,82.731 148.809,78.731 141,78.5C 140.51,77.2068 140.343,75.8734 140.5,74.5 Z"/></g>
<g><path style="opacity:1" fill="#fcfbfc" d="M 575.5,125.5 C 558.833,125.5 542.167,125.5 525.5,125.5C 525.216,127.415 525.549,129.081 526.5,130.5C 531.68,139.987 539.68,143.487 550.5,141C 554.342,140.279 557.676,138.613 560.5,136C 561.5,135.333 562.5,135.333 563.5,136C 565.758,139.184 567.758,142.517 569.5,146C 569.241,147.261 568.574,148.261 567.5,149C 551.971,158.454 536.304,158.787 520.5,150C 505.826,136.806 502.326,120.972 510,102.5C 523.265,84.1121 540.098,79.9454 560.5,90C 572.21,98.9537 577.21,110.787 575.5,125.5 Z"/></g>
<g><path style="opacity:1" fill="#fdfdfe" d="M 606.5,109.5 C 605.504,123.99 605.171,138.657 605.5,153.5C 599.833,153.5 594.167,153.5 588.5,153.5C 588.5,131.167 588.5,108.833 588.5,86.5C 594.167,86.5 599.833,86.5 605.5,86.5C 605.335,89.5184 605.502,92.5184 606,95.5C 606.717,94.9558 607.217,94.2891 607.5,93.5C 612.9,87.8063 619.566,84.8063 627.5,84.5C 627.5,90.5 627.5,96.5 627.5,102.5C 619.096,101.079 612.096,103.412 606.5,109.5 Z"/></g>
<g><path style="opacity:1" fill="#e9e0ed" d="M 394.5,86.5 C 394.5,108.833 394.5,131.167 394.5,153.5C 399.833,153.5 405.167,153.5 410.5,153.5C 410.5,131.167 410.5,108.833 410.5,86.5C 411.497,108.994 411.831,131.661 411.5,154.5C 405.5,154.5 399.5,154.5 393.5,154.5C 393.169,131.661 393.503,108.994 394.5,86.5 Z"/></g>
<g><path style="opacity:1" fill="#fefefe" d="M 394.5,86.5 C 399.833,86.5 405.167,86.5 410.5,86.5C 410.5,108.833 410.5,131.167 410.5,153.5C 405.167,153.5 399.833,153.5 394.5,153.5C 394.5,131.167 394.5,108.833 394.5,86.5 Z"/></g>
<g><path style="opacity:1" fill="#b290c0" d="M 605.5,86.5 C 606.167,88.8333 606.833,91.1667 607.5,93.5C 607.217,94.2891 606.717,94.9558 606,95.5C 605.502,92.5184 605.335,89.5184 605.5,86.5 Z"/></g>
<g><path style="opacity:1" fill="#e0d7e3" d="M 212.5,72.5 C 213.944,78.9416 214.61,85.6083 214.5,92.5C 214.499,96.6812 214.166,100.681 213.5,104.5C 213.433,93.8231 213.099,83.1564 212.5,72.5 Z"/></g>
<g><path style="opacity:1" fill="#cfbbd8" d="M 588.5,86.5 C 588.5,108.833 588.5,131.167 588.5,153.5C 594.167,153.5 599.833,153.5 605.5,153.5C 605.171,138.657 605.504,123.99 606.5,109.5C 606.5,124.5 606.5,139.5 606.5,154.5C 600.167,154.5 593.833,154.5 587.5,154.5C 587.169,131.661 587.503,108.994 588.5,86.5 Z"/></g>
<g><path style="opacity:1" fill="#8d53a3" d="M 557.5,113.5 C 546.448,114.143 535.781,113.476 525.5,111.5C 527.622,103.393 532.956,99.3935 541.5,99.5C 550.922,99.5933 556.256,104.26 557.5,113.5 Z"/></g>
<g><path style="opacity:1" fill="#8c52a3" d="M 478.5,114.5 C 478.587,119.537 478.254,124.537 477.5,129.5C 471.293,139.823 462.626,142.323 451.5,137C 450,135.5 448.5,134 447,132.5C 446.333,124.5 446.333,116.5 447,108.5C 452.433,102.134 459.266,99.9677 467.5,102C 473.178,104.505 476.845,108.671 478.5,114.5 Z"/></g>
<g><path style="opacity:1" fill="#d1c0da" d="M 525.5,111.5 C 535.781,113.476 546.448,114.143 557.5,113.5C 546.679,114.495 535.679,114.828 524.5,114.5C 524.263,113.209 524.596,112.209 525.5,111.5 Z"/></g>
<g><path style="opacity:1" fill="#decfe4" d="M 478.5,114.5 C 479.162,116.304 479.495,118.304 479.5,120.5C 479.657,123.814 478.991,126.814 477.5,129.5C 478.254,124.537 478.587,119.537 478.5,114.5 Z"/></g>
<g><path style="opacity:1" fill="#e1d1e6" d="M 575.5,125.5 C 559.342,126.496 543.009,126.83 526.5,126.5C 526.5,127.833 526.5,129.167 526.5,130.5C 525.549,129.081 525.216,127.415 525.5,125.5C 542.167,125.5 558.833,125.5 575.5,125.5 Z"/></g>
<g><path style="opacity:1" fill="#ab87bb" d="M 448.5,148.5 C 447.833,150.5 447.167,152.5 446.5,154.5C 446.5,154.167 446.5,153.833 446.5,153.5C 446.337,151.143 446.503,148.81 447,146.5C 447.717,147.044 448.217,147.711 448.5,148.5 Z"/></g>
<g><path style="opacity:1" fill="#d9c6e1" d="M 323.5,152.5 C 332.082,153.47 340.749,153.803 349.5,153.5C 345.347,154.166 341.013,154.499 336.5,154.5C 331.778,154.492 327.445,153.825 323.5,152.5 Z"/></g>
<g><path style="opacity:1" fill="#845297" d="M 205.5,141.5 C 205.461,144.321 204.795,146.988 203.5,149.5C 198.158,154.492 192.492,158.992 186.5,163C 174.239,165.908 163.239,168.241 153.5,170C 142.787,170.787 132.12,170.62 121.5,169.5C 121.611,168.883 121.944,168.383 122.5,168C 144.475,169.45 165.808,166.45 186.5,159C 194.309,154.688 200.642,148.855 205.5,141.5 Z"/></g>
<g><path style="opacity:1" fill="#a082b7" d="M 97.5,150.5 C 98.8333,150.5 100.167,150.5 101.5,150.5C 101.5,160.833 101.5,171.167 101.5,181.5C 100.506,171.681 100.173,161.681 100.5,151.5C 99.209,151.737 98.209,151.404 97.5,150.5 Z"/></g>
<g><path style="opacity:0.031" fill="#884e9e" d="M 706.5,187.5 C 706.5,191.167 706.5,194.833 706.5,198.5C 706.167,198.5 705.833,198.5 705.5,198.5C 705.185,194.629 705.518,190.962 706.5,187.5 Z"/></g>
<g><path style="opacity:0.027" fill="#844b99" d="M 0.5,198.5 C 0.833333,198.5 1.16667,198.5 1.5,198.5C 1.5,199.5 1.5,200.5 1.5,201.5C 0.596028,200.791 0.262695,199.791 0.5,198.5 Z"/></g>
<g><path style="opacity:0.027" fill="#844b99" d="M 704.5,198.5 C 704.833,198.5 705.167,198.5 705.5,198.5C 705.737,199.791 705.404,200.791 704.5,201.5C 704.5,200.5 704.5,199.5 704.5,198.5 Z"/></g>
<g><path style="opacity:0.027" fill="#894f9f" d="M 1.5,201.5 C 1.83333,201.5 2.16667,201.5 2.5,201.5C 2.5,202.167 2.5,202.833 2.5,203.5C 1.66175,203.158 1.32842,202.492 1.5,201.5 Z"/></g>
<g><path style="opacity:0.027" fill="#894f9f" d="M 703.5,201.5 C 703.833,201.5 704.167,201.5 704.5,201.5C 704.672,202.492 704.338,203.158 703.5,203.5C 703.5,202.833 703.5,202.167 703.5,201.5 Z"/></g>
<g><path style="opacity:0.012" fill="#7d4893" d="M 700.5,207.5 C 700.833,207.5 701.167,207.5 701.5,207.5C 701.315,208.17 700.981,208.17 700.5,207.5 Z"/></g>
<g><path style="opacity:0.027" fill="#9657b0" d="M 699.5,208.5 C 699.833,208.5 700.167,208.5 700.5,208.5C 700.315,209.17 699.981,209.17 699.5,208.5 Z"/></g>
</svg>
